<svg width="48" height="48" viewBox="0 0 48 48" fill="none" xmlns="http://www.w3.org/2000/svg">
<path d="M1.5 25C1.5 23.6193 2.61929 22.5 4 22.5H44C45.3807 22.5 46.5 23.6193 46.5 25V27C46.5 28.3807 45.3807 29.5 44 29.5H4C2.61929 29.5 1.5 28.3807 1.5 27V25Z" stroke="#293D4D" stroke-width="3"/>
<path d="M5.5 29.5H42.5V39C42.5 40.933 40.933 42.5 39 42.5H9C7.067 42.5 5.5 40.933 5.5 39V29.5Z" stroke="#293D4D" stroke-width="3"/>
<path d="M11 43L11 46" stroke="#293D4D" stroke-width="3" stroke-linecap="round"/>
<path d="M37 43L37 46" stroke="#293D4D" stroke-width="3" stroke-linecap="round"/>
<path d="M26 6L22 9" stroke="#FF5F9E" stroke-width="3" stroke-linecap="round"/>
<path d="M27 12L23 15" stroke="#FF5F9E" stroke-width="3" stroke-linecap="round"/>
<path d="M33 14L29 17" stroke="#FF5F9E" stroke-width="3" stroke-linecap="round"/>
<path d="M40 22L40 8.54776C40 7.94789 39.7307 7.3797 39.2665 6.99984L37.0008 5.14614C36.2056 4.49549 35.0467 4.55329 34.3202 5.27985L32 7.6" stroke="#293D4D" stroke-width="3" stroke-linecap="round"/>
</svg>
