<svg width="48" height="48" viewBox="0 0 48 48" fill="none" xmlns="http://www.w3.org/2000/svg">
<path d="M28.5 41C28.5 42.004 27.5687 43.3788 24.9723 44.5905C22.4976 45.7453 18.9735 46.5 15 46.5C11.0265 46.5 7.50237 45.7453 5.02773 44.5905C2.43129 43.3788 1.5 42.004 1.5 41C1.5 39.996 2.43129 38.6212 5.02773 37.4095C7.50237 36.2547 11.0265 35.5 15 35.5C18.9735 35.5 22.4976 36.2547 24.9723 37.4095C27.5687 38.6212 28.5 39.996 28.5 41Z" stroke="#293D4D" stroke-width="3"/>
<path d="M28.5 13.2826C28.5 16.6627 26.9036 23.3742 24.2395 29.275C22.915 32.2087 21.3723 34.8366 19.716 36.706C18.0327 38.6058 16.4358 39.5 15 39.5C13.5642 39.5 11.9673 38.6058 10.284 36.706C8.62769 34.8366 7.08503 32.2087 5.76052 29.275C3.09642 23.3742 1.5 16.6627 1.5 13.2826C1.5 6.94149 7.36752 1.5 15 1.5C22.6325 1.5 28.5 6.94149 28.5 13.2826Z" fill="#D7ECF5" stroke="#293D4D" stroke-width="3"/>
<circle cx="15" cy="15" r="5.5" stroke="#FF5F9E" stroke-width="3"/>
</svg>
