<svg width="48" height="48" viewBox="0 0 48 48" fill="none" xmlns="http://www.w3.org/2000/svg">
<path d="M41.5 31L41.255 31.245C37.8417 34.6583 37.953 40.2258 41.5 43.5V43.5" stroke="#293D4D" stroke-width="3" stroke-linecap="round"/>
<path d="M6 31L6.245 31.245C9.65834 34.6583 9.54704 40.2258 6 43.5V43.5" stroke="#293D4D" stroke-width="3" stroke-linecap="round"/>
<path d="M35.5 31L35.255 31.245C31.8417 34.6583 31.953 40.2258 35.5 43.5V43.5" stroke="#293D4D" stroke-width="3" stroke-linecap="round"/>
<path d="M12 31L12.245 31.245C15.6583 34.6583 15.547 40.2258 12 43.5V43.5" stroke="#293D4D" stroke-width="3" stroke-linecap="round"/>
<path d="M1.5 10C1.5 8.61929 2.61929 7.5 4 7.5H44C45.3807 7.5 46.5 8.61929 46.5 10V24C46.5 25.3807 45.3807 26.5 44 26.5H4C2.61929 26.5 1.5 25.3807 1.5 24V10Z" stroke="#293D4D" stroke-width="3"/>
<path d="M28 14L20 14" stroke="#FF5F9E" stroke-width="3" stroke-linecap="round"/>
<path d="M47 21L0.999999 21" stroke="#293D4D" stroke-width="3" stroke-linecap="round"/>
</svg>
