<svg width="48" height="48" viewBox="0 0 48 48" fill="none" xmlns="http://www.w3.org/2000/svg">
<path d="M12.5 18C12.5 16.6193 13.6193 15.5 15 15.5H19C20.3807 15.5 21.5 16.6193 21.5 18V24.5H12.5V18Z" stroke="#FF5F9E" stroke-width="3"/>
<path d="M25.5 18C25.5 16.6193 26.6193 15.5 28 15.5H32C33.3807 15.5 34.5 16.6193 34.5 18V24.5H25.5V18Z" stroke="#FF5F9E" stroke-width="3"/>
<path d="M7.5 11C7.5 6.30558 11.3056 2.5 16 2.5H31C35.6944 2.5 39.5 6.30558 39.5 11V24.5H7.5V11Z" stroke="#293D4D" stroke-width="3"/>
<mask id="path-4-inside-1_37_64" fill="white">
<path d="M0 28C0 25.7909 1.79086 24 4 24H44C46.2091 24 48 25.7909 48 28V38C48 39.1046 47.1046 40 46 40H2C0.895431 40 0 39.1046 0 38V28Z"/>
</mask>
<path d="M0 28C0 25.7909 1.79086 24 4 24H44C46.2091 24 48 25.7909 48 28V38C48 39.1046 47.1046 40 46 40H2C0.895431 40 0 39.1046 0 38V28Z" stroke="#293D4D" stroke-width="6" mask="url(#path-4-inside-1_37_64)"/>
<path d="M5 39L5 46" stroke="#293D4D" stroke-width="3" stroke-linecap="round"/>
<path d="M43 39L43 46" stroke="#293D4D" stroke-width="3" stroke-linecap="round"/>
<path d="M43 43H6" stroke="#293D4D" stroke-width="3" stroke-linecap="round"/>
</svg>
