<svg width="48" height="48" viewBox="0 0 48 48" fill="none" xmlns="http://www.w3.org/2000/svg">
<path d="M17 12L17 17" stroke="#293D4D" stroke-width="3" stroke-linecap="round"/>
<path d="M31 12L31 17" stroke="#293D4D" stroke-width="3" stroke-linecap="round"/>
<mask id="path-3-inside-1_37_118" fill="white">
<path d="M20 2C20.5523 2 21 2.44772 21 3L21 8C21 10.2091 19.2091 12 17 12C14.7909 12 13 10.2091 13 8L13 3C13 2.44772 13.4477 2 14 2L20 2Z"/>
</mask>
<path d="M20 2C20.5523 2 21 2.44772 21 3L21 8C21 10.2091 19.2091 12 17 12C14.7909 12 13 10.2091 13 8L13 3C13 2.44772 13.4477 2 14 2L20 2Z" stroke="#FF5F9E" stroke-width="6" mask="url(#path-3-inside-1_37_118)"/>
<mask id="path-4-inside-2_37_118" fill="white">
<path d="M34 2C34.5523 2 35 2.44772 35 3L35 8C35 10.2091 33.2091 12 31 12C28.7909 12 27 10.2091 27 8L27 3C27 2.44772 27.4477 2 28 2L34 2Z"/>
</mask>
<path d="M34 2C34.5523 2 35 2.44772 35 3L35 8C35 10.2091 33.2091 12 31 12C28.7909 12 27 10.2091 27 8L27 3C27 2.44772 27.4477 2 28 2L34 2Z" stroke="#FF5F9E" stroke-width="6" mask="url(#path-4-inside-2_37_118)"/>
<path d="M9.31629 19.4651C9.78993 18.8562 10.5182 18.5 11.2897 18.5H37.8593C38.6951 18.5 39.4757 18.9178 39.9394 19.6132L42.6061 23.6133C43.7136 25.2746 42.5227 27.5 40.5259 27.5H8.17856C6.09819 27.5 4.92795 25.1073 6.20518 23.4651L9.31629 19.4651Z" stroke="#293D4D" stroke-width="3"/>
<mask id="path-6-inside-3_37_118" fill="white">
<path d="M14 26C14.5523 26 15 26.4477 15 27L15 42C15 44.2091 13.2091 46 11 46C8.79086 46 7 44.2091 7 42L7 27C7 26.4477 7.44772 26 8 26L14 26Z"/>
</mask>
<path d="M14 26C14.5523 26 15 26.4477 15 27L15 42C15 44.2091 13.2091 46 11 46C8.79086 46 7 44.2091 7 42L7 27C7 26.4477 7.44772 26 8 26L14 26Z" stroke="#293D4D" stroke-width="6" mask="url(#path-6-inside-3_37_118)"/>
<mask id="path-7-inside-4_37_118" fill="white">
<path d="M40 26C40.5523 26 41 26.4477 41 27L41 42C41 44.2091 39.2091 46 37 46C34.7909 46 33 44.2091 33 42L33 27C33 26.4477 33.4477 26 34 26L40 26Z"/>
</mask>
<path d="M40 26C40.5523 26 41 26.4477 41 27L41 42C41 44.2091 39.2091 46 37 46C34.7909 46 33 44.2091 33 42L33 27C33 26.4477 33.4477 26 34 26L40 26Z" stroke="#293D4D" stroke-width="6" mask="url(#path-7-inside-4_37_118)"/>
</svg>
