<svg width="48" height="48" viewBox="0 0 48 48" fill="none" xmlns="http://www.w3.org/2000/svg">
<mask id="path-1-inside-1_8_203" fill="white">
<path fill-rule="evenodd" clip-rule="evenodd" d="M16.9821 6C16.2626 6 15.5986 6.38644 15.2432 7.01198L11.8409 13H8C3.58172 13 0 16.5817 0 21V33C0 37.4183 3.58172 41 8 41H40C44.4183 41 48 37.4183 48 33V21C48 16.5817 44.4183 13 40 13H36.1591L32.7568 7.01198C32.4014 6.38644 31.7374 6 31.0179 6H16.9821Z"/>
</mask>
<path d="M15.2432 7.01198L17.8516 8.49401V8.49401L15.2432 7.01198ZM11.8409 13V16H13.5868L14.4493 14.482L11.8409 13ZM36.1591 13L33.5507 14.482L34.4132 16H36.1591V13ZM32.7568 7.01198L30.1484 8.49401V8.49401L32.7568 7.01198ZM17.8516 8.49401C17.6739 8.80678 17.3418 9 16.9821 9V3C15.1834 3 13.5234 3.96609 12.6348 5.52995L17.8516 8.49401ZM14.4493 14.482L17.8516 8.49401L12.6348 5.52995L9.23254 11.518L14.4493 14.482ZM8 16H11.8409V10H8V16ZM3 21C3 18.2386 5.23858 16 8 16V10C1.92487 10 -3 14.9249 -3 21H3ZM3 33V21H-3V33H3ZM8 38C5.23858 38 3 35.7614 3 33H-3C-3 39.0751 1.92487 44 8 44V38ZM40 38H8V44H40V38ZM45 33C45 35.7614 42.7614 38 40 38V44C46.0751 44 51 39.0751 51 33H45ZM45 21V33H51V21H45ZM40 16C42.7614 16 45 18.2386 45 21H51C51 14.9249 46.0751 10 40 10V16ZM36.1591 16H40V10H36.1591V16ZM30.1484 8.49401L33.5507 14.482L38.7675 11.518L35.3652 5.52995L30.1484 8.49401ZM31.0179 9C30.6582 9 30.3262 8.80678 30.1484 8.49401L35.3652 5.52995C34.4766 3.96609 32.8166 3 31.0179 3V9ZM16.9821 9H31.0179V3H16.9821V9Z" fill="#293D4D" mask="url(#path-1-inside-1_8_203)"/>
<circle cx="24" cy="25" r="6.5" stroke="#FF5F9E" stroke-width="3"/>
<path d="M41 20H35" stroke="#293D4D" stroke-width="3" stroke-linecap="round"/>
<mask id="path-5-inside-2_8_203" fill="white">
<path d="M3 11C3 9.89543 3.89543 9 5 9H9C10.1046 9 11 9.89543 11 11V13C11 14.1046 10.1046 15 9 15H3V11Z"/>
</mask>
<path d="M3 11C3 9.89543 3.89543 9 5 9H9C10.1046 9 11 9.89543 11 11V13C11 14.1046 10.1046 15 9 15H3V11Z" stroke="#293D4D" stroke-width="5.2" mask="url(#path-5-inside-2_8_203)"/>
</svg>
